<svg xmlns="http://www.w3.org/2000/svg" style="fill: #000" width="35.2275" height="26.8467" viewBox="0 0 35.2275 26.8467"><path d="M0,26.8467V18.3237a18.5648,18.5648,0,0,1,1.42-6.9956A30.3614,30.3614,0,0,1,5.0073,4.83,26.86,26.86,0,0,1,9.375,0l8.0967,4.12a28.532,28.532,0,0,0-2.8589,6.4629,26.2481,26.2481,0,0,0-.9766,7.7412v8.5229Zm17.7559,0V18.3237a18.5553,18.5553,0,0,1,1.42-6.9956A30.36,30.36,0,0,1,22.7627,4.83,26.8609,26.8609,0,0,1,27.1309,0l8.0967,4.12a28.532,28.532,0,0,0-2.8589,6.4629,26.2157,26.2157,0,0,0-.9766,7.7412v8.5229Z"/></svg>